# xmcd CD database file
#
# Track frame offsets:
#	180
#	10245
#	42107
#	64056
#	92242
#	123435
#	161420
#	180771
#	201837
#	222929
#	249931
#	276733
#
# Disc length: 3844 seconds
#
# Revision: 0
# Processed by: cddbd v1.5.1PL0 Copyright (c) Steve Scherf et al.
# Submitted via: CDex 1.51
#
DISCID=a30f020c
DTITLE=Blue4U - You don't know what love is
DYEAR=1994
DGENRE=Jazz
TTITLE0=Misty
TTITLE1=You don't know what love is
TTITLE2=How insensitive
TTITLE3=Ain't no sunshine when he's gone
TTITLE4=Help the poor
TTITLE5=God bless the child
TTITLE6=Now's the time for Erics's Gale
TTITLE7=My funny Valentine
TTITLE8=Alice in wonderland
TTITLE9=Blue Monk
TTITLE10=Love for sale
TTITLE11=Peace
EXTD=YEAR: 1994
EXTT0=
EXTT1=
EXTT2=
EXTT3=
EXTT4=
EXTT5=
EXTT6=
EXTT7=
EXTT8=
EXTT9=
EXTT10=
EXTT11=
PLAYORDER=
